999
"DXF R12 Output" (www.mydxf.blogspot.com)
 0 
SECTION
 2 
HEADER
 9 
$ACADVER
 1 
AC1009
 9 
$EXTMIN
 10 
 0 
 20 
 0 
 9 
$EXTMAX
 10 
 8.5 
 20 
 11 
 0 
ENDSEC
 0 
SECTION
 2 
ENTITIES
0
LINE
8
Layer 1
10
9.999906
20
270.000045
11
9.999906
21
19.999800
0
LINE
8
Layer 1
10
9.999906
20
19.999800
11
509.999880
21
19.999800
0
LINE
8
Layer 1
10
509.999880
20
19.999800
11
509.999880
21
270.000045
0
LINE
8
Layer 1
10
509.999880
20
270.000045
11
9.999906
21
270.000045
0
LINE
8
Layer 1
10
9.999906
20
270.000045
11
9.999906
21
270.000045
0
LINE
8
Layer 1
10
47.691663
20
250.000232
11
52.308435
21
250.000232
0
LINE
8
Layer 1
10
52.308435
20
250.000232
11
52.500155
21
249.808512
0
LINE
8
Layer 1
10
52.500155
20
249.808512
11
52.500155
21
245.000020
0
LINE
8
Layer 1
10
52.500155
20
245.000020
11
64.808447
21
245.000020
0
LINE
8
Layer 1
10
64.808447
20
245.000020
11
65.000167
21
244.808301
0
LINE
8
Layer 1
10
65.000167
20
244.808301
11
65.000167
21
240.191528
0
LINE
8
Layer 1
10
65.000167
20
240.191528
11
64.808447
21
239.999809
0
LINE
8
Layer 1
10
64.808447
20
239.999809
11
52.500155
21
239.999809
0
LINE
8
Layer 1
10
52.500155
20
239.999809
11
52.500155
21
235.191833
0
LINE
8
Layer 1
10
52.500155
20
235.191833
11
52.308435
21
235.000114
0
LINE
8
Layer 1
10
52.308435
20
235.000114
11
47.691663
21
235.000114
0
LINE
8
Layer 1
10
47.691663
20
235.000114
11
47.499943
21
235.191833
0
LINE
8
Layer 1
10
47.499943
20
235.191833
11
47.499943
21
239.999809
0
LINE
8
Layer 1
10
47.499943
20
239.999809
11
35.191650
21
239.999809
0
LINE
8
Layer 1
10
35.191650
20
239.999809
11
34.999931
21
240.191528
0
LINE
8
Layer 1
10
34.999931
20
240.191528
11
34.999931
21
244.808301
0
LINE
8
Layer 1
10
34.999931
20
244.808301
11
35.191650
21
245.000020
0
LINE
8
Layer 1
10
35.191650
20
245.000020
11
47.499943
21
245.000020
0
LINE
8
Layer 1
10
47.499943
20
245.000020
11
47.499943
21
249.808512
0
LINE
8
Layer 1
10
47.499943
20
249.808512
11
47.691663
21
250.000232
0
LINE
8
Layer 1
10
47.691663
20
250.000232
11
47.691663
21
250.000232
0
LINE
8
Layer 1
10
257.691760
20
250.000232
11
262.308540
21
250.000232
0
LINE
8
Layer 1
10
262.308540
20
250.000232
11
262.500260
21
249.808512
0
LINE
8
Layer 1
10
262.500260
20
249.808512
11
262.500260
21
245.000020
0
LINE
8
Layer 1
10
262.500260
20
245.000020
11
274.808550
21
245.000020
0
LINE
8
Layer 1
10
274.808550
20
245.000020
11
274.999750
21
244.808301
0
LINE
8
Layer 1
10
274.999750
20
244.808301
11
274.999750
21
240.191528
0
LINE
8
Layer 1
10
274.999750
20
240.191528
11
274.808550
21
239.999809
0
LINE
8
Layer 1
10
274.808550
20
239.999809
11
262.500260
21
239.999809
0
LINE
8
Layer 1
10
262.500260
20
239.999809
11
262.500260
21
235.191833
0
LINE
8
Layer 1
10
262.500260
20
235.191833
11
262.308540
21
235.000114
0
LINE
8
Layer 1
10
262.308540
20
235.000114
11
257.691760
21
235.000114
0
LINE
8
Layer 1
10
257.691760
20
235.000114
11
257.500040
21
235.191833
0
LINE
8
Layer 1
10
257.500040
20
235.191833
11
257.500040
21
239.999809
0
LINE
8
Layer 1
10
257.500040
20
239.999809
11
245.191750
21
239.999809
0
LINE
8
Layer 1
10
245.191750
20
239.999809
11
245.000030
21
240.191528
0
LINE
8
Layer 1
10
245.000030
20
240.191528
11
245.000030
21
244.808301
0
LINE
8
Layer 1
10
245.000030
20
244.808301
11
245.191750
21
245.000020
0
LINE
8
Layer 1
10
245.191750
20
245.000020
11
257.500040
21
245.000020
0
LINE
8
Layer 1
10
257.500040
20
245.000020
11
257.500040
21
249.808512
0
LINE
8
Layer 1
10
257.500040
20
249.808512
11
257.691760
21
250.000232
0
LINE
8
Layer 1
10
257.691760
20
250.000232
11
257.691760
21
250.000232
0
LINE
8
Layer 1
10
467.691870
20
250.000232
11
472.308120
21
250.000232
0
LINE
8
Layer 1
10
472.308120
20
250.000232
11
472.499840
21
249.808512
0
LINE
8
Layer 1
10
472.499840
20
249.808512
11
472.499840
21
245.000020
0
LINE
8
Layer 1
10
472.499840
20
245.000020
11
484.808130
21
245.000020
0
LINE
8
Layer 1
10
484.808130
20
245.000020
11
484.999850
21
244.808301
0
LINE
8
Layer 1
10
484.999850
20
244.808301
11
484.999850
21
240.191528
0
LINE
8
Layer 1
10
484.999850
20
240.191528
11
484.808130
21
239.999809
0
LINE
8
Layer 1
10
484.808130
20
239.999809
11
472.499840
21
239.999809
0
LINE
8
Layer 1
10
472.499840
20
239.999809
11
472.499840
21
235.191833
0
LINE
8
Layer 1
10
472.499840
20
235.191833
11
472.308120
21
235.000114
0
LINE
8
Layer 1
10
472.308120
20
235.000114
11
467.691870
21
235.000114
0
LINE
8
Layer 1
10
467.691870
20
235.000114
11
467.500150
21
235.191833
0
LINE
8
Layer 1
10
467.500150
20
235.191833
11
467.500150
21
239.999809
0
LINE
8
Layer 1
10
467.500150
20
239.999809
11
455.191850
21
239.999809
0
LINE
8
Layer 1
10
455.191850
20
239.999809
11
455.000130
21
240.191528
0
LINE
8
Layer 1
10
455.000130
20
240.191528
11
455.000130
21
244.808301
0
LINE
8
Layer 1
10
455.000130
20
244.808301
11
455.191850
21
245.000020
0
LINE
8
Layer 1
10
455.191850
20
245.000020
11
467.500150
21
245.000020
0
LINE
8
Layer 1
10
467.500150
20
245.000020
11
467.500150
21
249.808512
0
LINE
8
Layer 1
10
467.500150
20
249.808512
11
467.691870
21
250.000232
0
LINE
8
Layer 1
10
467.691870
20
250.000232
11
467.691870
21
250.000232
0
LINE
8
Layer 1
10
47.691663
20
55.000250
11
52.308435
21
55.000250
0
LINE
8
Layer 1
10
52.308435
20
55.000250
11
52.500155
21
54.808530
0
LINE
8
Layer 1
10
52.500155
20
54.808530
11
52.500155
21
50.000040
0
LINE
8
Layer 1
10
52.500155
20
50.000040
11
64.808447
21
50.000040
0
LINE
8
Layer 1
10
64.808447
20
50.000040
11
65.000167
21
49.808320
0
LINE
8
Layer 1
10
65.000167
20
49.808320
11
65.000167
21
45.191540
0
LINE
8
Layer 1
10
65.000167
20
45.191540
11
64.808447
21
44.999830
0
LINE
8
Layer 1
10
64.808447
20
44.999830
11
52.500155
21
44.999830
0
LINE
8
Layer 1
10
52.500155
20
44.999830
11
52.500155
21
40.191850
0
LINE
8
Layer 1
10
52.500155
20
40.191850
11
52.308435
21
40.000130
0
LINE
8
Layer 1
10
52.308435
20
40.000130
11
47.691663
21
40.000130
0
LINE
8
Layer 1
10
47.691663
20
40.000130
11
47.499943
21
40.191850
0
LINE
8
Layer 1
10
47.499943
20
40.191850
11
47.499943
21
44.999830
0
LINE
8
Layer 1
10
47.499943
20
44.999830
11
35.191650
21
44.999830
0
LINE
8
Layer 1
10
35.191650
20
44.999830
11
34.999931
21
45.191540
0
LINE
8
Layer 1
10
34.999931
20
45.191540
11
34.999931
21
49.808320
0
LINE
8
Layer 1
10
34.999931
20
49.808320
11
35.191650
21
50.000040
0
LINE
8
Layer 1
10
35.191650
20
50.000040
11
47.499943
21
50.000040
0
LINE
8
Layer 1
10
47.499943
20
50.000040
11
47.499943
21
54.808530
0
LINE
8
Layer 1
10
47.499943
20
54.808530
11
47.691663
21
55.000250
0
LINE
8
Layer 1
10
47.691663
20
55.000250
11
47.691663
21
55.000250
0
LINE
8
Layer 1
10
257.691760
20
55.000250
11
262.308540
21
55.000250
0
LINE
8
Layer 1
10
262.308540
20
55.000250
11
262.500260
21
54.808530
0
LINE
8
Layer 1
10
262.500260
20
54.808530
11
262.500260
21
50.000040
0
LINE
8
Layer 1
10
262.500260
20
50.000040
11
274.808550
21
50.000040
0
LINE
8
Layer 1
10
274.808550
20
50.000040
11
274.999750
21
49.808320
0
LINE
8
Layer 1
10
274.999750
20
49.808320
11
274.999750
21
45.191540
0
LINE
8
Layer 1
10
274.999750
20
45.191540
11
274.808550
21
44.999830
0
LINE
8
Layer 1
10
274.808550
20
44.999830
11
262.500260
21
44.999830
0
LINE
8
Layer 1
10
262.500260
20
44.999830
11
262.500260
21
40.191850
0
LINE
8
Layer 1
10
262.500260
20
40.191850
11
262.308540
21
40.000130
0
LINE
8
Layer 1
10
262.308540
20
40.000130
11
257.691760
21
40.000130
0
LINE
8
Layer 1
10
257.691760
20
40.000130
11
257.500040
21
40.191850
0
LINE
8
Layer 1
10
257.500040
20
40.191850
11
257.500040
21
44.999830
0
LINE
8
Layer 1
10
257.500040
20
44.999830
11
245.191750
21
44.999830
0
LINE
8
Layer 1
10
245.191750
20
44.999830
11
245.000030
21
45.191540
0
LINE
8
Layer 1
10
245.000030
20
45.191540
11
245.000030
21
49.808320
0
LINE
8
Layer 1
10
245.000030
20
49.808320
11
245.191750
21
50.000040
0
LINE
8
Layer 1
10
245.191750
20
50.000040
11
257.500040
21
50.000040
0
LINE
8
Layer 1
10
257.500040
20
50.000040
11
257.500040
21
54.808530
0
LINE
8
Layer 1
10
257.500040
20
54.808530
11
257.691760
21
55.000250
0
LINE
8
Layer 1
10
257.691760
20
55.000250
11
257.691760
21
55.000250
0
LINE
8
Layer 1
10
467.691870
20
55.000250
11
472.308120
21
55.000250
0
LINE
8
Layer 1
10
472.308120
20
55.000250
11
472.499840
21
54.808530
0
LINE
8
Layer 1
10
472.499840
20
54.808530
11
472.499840
21
50.000040
0
LINE
8
Layer 1
10
472.499840
20
50.000040
11
484.808130
21
50.000040
0
LINE
8
Layer 1
10
484.808130
20
50.000040
11
484.999850
21
49.808320
0
LINE
8
Layer 1
10
484.999850
20
49.808320
11
484.999850
21
45.191540
0
LINE
8
Layer 1
10
484.999850
20
45.191540
11
484.808130
21
44.999830
0
LINE
8
Layer 1
10
484.808130
20
44.999830
11
472.499840
21
44.999830
0
LINE
8
Layer 1
10
472.499840
20
44.999830
11
472.499840
21
40.191850
0
LINE
8
Layer 1
10
472.499840
20
40.191850
11
472.308120
21
40.000130
0
LINE
8
Layer 1
10
472.308120
20
40.000130
11
467.691870
21
40.000130
0
LINE
8
Layer 1
10
467.691870
20
40.000130
11
467.500150
21
40.191850
0
LINE
8
Layer 1
10
467.500150
20
40.191850
11
467.500150
21
44.999830
0
LINE
8
Layer 1
10
467.500150
20
44.999830
11
455.191850
21
44.999830
0
LINE
8
Layer 1
10
455.191850
20
44.999830
11
455.000130
21
45.191540
0
LINE
8
Layer 1
10
455.000130
20
45.191540
11
455.000130
21
49.808320
0
LINE
8
Layer 1
10
455.000130
20
49.808320
11
455.191850
21
50.000040
0
LINE
8
Layer 1
10
455.191850
20
50.000040
11
467.500150
21
50.000040
0
LINE
8
Layer 1
10
467.500150
20
50.000040
11
467.500150
21
54.808530
0
LINE
8
Layer 1
10
467.500150
20
54.808530
11
467.691870
21
55.000250
0
LINE
8
Layer 1
10
467.691870
20
55.000250
11
467.691870
21
55.000250
0
LINE
8
Layer 1
10
516.345310
20
258.103096
11
516.191830
21
257.950133
0
LINE
8
Layer 1
10
516.191830
20
257.950133
11
516.191830
21
254.626822
0
LINE
8
Layer 1
10
516.191830
20
254.626822
11
516.191830
21
253.103401
0
LINE
8
Layer 1
10
516.191830
20
253.103401
11
523.691630
21
253.103401
0
LINE
8
Layer 1
10
523.691630
20
253.103401
11
523.691630
21
248.103189
0
LINE
8
Layer 1
10
523.691630
20
248.103189
11
516.191830
21
248.103189
0
LINE
8
Layer 1
10
516.191830
20
248.103189
11
516.191830
21
245.050662
0
LINE
8
Layer 1
10
516.191830
20
245.050662
11
516.191830
21
242.950015
0
LINE
8
Layer 1
10
516.191830
20
242.950015
11
516.345310
21
243.103494
0
LINE
8
Layer 1
10
516.345310
20
243.103494
11
519.038680
21
243.103494
0
LINE
8
Layer 1
10
519.038680
20
243.103494
11
519.191650
21
242.950015
0
LINE
8
Layer 1
10
519.191650
20
242.950015
11
519.191650
21
63.256590
0
LINE
8
Layer 1
10
519.191650
20
63.256590
11
519.038680
21
63.103110
0
LINE
8
Layer 1
10
519.038680
20
63.103110
11
516.345310
21
63.103110
0
LINE
8
Layer 1
10
516.345310
20
63.103110
11
516.191830
21
63.256590
0
LINE
8
Layer 1
10
516.191830
20
63.256590
11
516.191830
21
60.677420
0
LINE
8
Layer 1
10
516.191830
20
60.677420
11
516.191830
21
58.103420
0
LINE
8
Layer 1
10
516.191830
20
58.103420
11
523.691630
21
58.103420
0
LINE
8
Layer 1
10
523.691630
20
58.103420
11
523.691630
21
53.103200
0
LINE
8
Layer 1
10
523.691630
20
53.103200
11
516.191830
21
53.103200
0
LINE
8
Layer 1
10
516.191830
20
53.103200
11
516.191830
21
51.101260
0
LINE
8
Layer 1
10
516.191830
20
51.101260
11
516.191830
21
48.256470
0
LINE
8
Layer 1
10
516.191830
20
48.256470
11
516.345310
21
48.103510
0
LINE
8
Layer 1
10
516.345310
20
48.103510
11
531.038470
21
48.103510
0
LINE
8
Layer 1
10
531.038470
20
48.103510
11
531.191950
21
48.256470
0
LINE
8
Layer 1
10
531.191950
20
48.256470
11
531.191950
21
50.293560
0
LINE
8
Layer 1
10
531.191950
20
50.293560
11
531.382120
21
50.103390
0
LINE
8
Layer 1
10
531.382120
20
50.103390
11
534.001600
21
50.103390
0
LINE
8
Layer 1
10
534.001600
20
50.103390
11
534.191760
21
50.293560
0
LINE
8
Layer 1
10
534.191760
20
50.293560
11
534.191760
21
55.912850
0
LINE
8
Layer 1
10
534.191760
20
55.912850
11
534.001600
21
56.103540
0
LINE
8
Layer 1
10
534.001600
20
56.103540
11
531.382120
21
56.103540
0
LINE
8
Layer 1
10
531.382120
20
56.103540
11
531.191950
21
55.912850
0
LINE
8
Layer 1
10
531.191950
20
55.912850
11
531.191950
21
65.293670
0
LINE
8
Layer 1
10
531.191950
20
65.293670
11
531.382120
21
65.103500
0
LINE
8
Layer 1
10
531.382120
20
65.103500
11
534.001600
21
65.103500
0
LINE
8
Layer 1
10
534.001600
20
65.103500
11
534.191760
21
65.293670
0
LINE
8
Layer 1
10
534.191760
20
65.293670
11
534.191760
21
70.912970
0
LINE
8
Layer 1
10
534.191760
20
70.912970
11
534.001600
21
71.103140
0
LINE
8
Layer 1
10
534.001600
20
71.103140
11
531.382120
21
71.103140
0
LINE
8
Layer 1
10
531.382120
20
71.103140
11
531.191950
21
70.912970
0
LINE
8
Layer 1
10
531.191950
20
70.912970
11
531.191950
21
235.293631
0
LINE
8
Layer 1
10
531.191950
20
235.293631
11
531.382120
21
235.103461
0
LINE
8
Layer 1
10
531.382120
20
235.103461
11
534.001600
21
235.103461
0
LINE
8
Layer 1
10
534.001600
20
235.103461
11
534.191760
21
235.293631
0
LINE
8
Layer 1
10
534.191760
20
235.293631
11
534.191760
21
240.912930
0
LINE
8
Layer 1
10
534.191760
20
240.912930
11
534.001600
21
241.103100
0
LINE
8
Layer 1
10
534.001600
20
241.103100
11
531.382120
21
241.103100
0
LINE
8
Layer 1
10
531.382120
20
241.103100
11
531.191950
21
240.912930
0
LINE
8
Layer 1
10
531.191950
20
240.912930
11
531.191950
21
250.293753
0
LINE
8
Layer 1
10
531.191950
20
250.293753
11
531.382120
21
250.103584
0
LINE
8
Layer 1
10
531.382120
20
250.103584
11
534.001600
21
250.103584
0
LINE
8
Layer 1
10
534.001600
20
250.103584
11
534.191760
21
250.293753
0
LINE
8
Layer 1
10
534.191760
20
250.293753
11
534.191760
21
255.913048
0
LINE
8
Layer 1
10
534.191760
20
255.913048
11
534.001600
21
256.103218
0
LINE
8
Layer 1
10
534.001600
20
256.103218
11
531.382120
21
256.103218
0
LINE
8
Layer 1
10
531.382120
20
256.103218
11
531.191950
21
255.913048
0
LINE
8
Layer 1
10
531.191950
20
255.913048
11
531.191950
21
257.950133
0
LINE
8
Layer 1
10
531.191950
20
257.950133
11
531.038470
21
258.103096
0
LINE
8
Layer 1
10
531.038470
20
258.103096
11
516.345310
21
258.103096
0
LINE
8
Layer 1
10
540.176480
20
257.721815
11
540.023000
21
257.568852
0
LINE
8
Layer 1
10
540.023000
20
257.568852
11
540.023000
21
254.245541
0
LINE
8
Layer 1
10
540.023000
20
254.245541
11
540.023000
21
252.722120
0
LINE
8
Layer 1
10
540.023000
20
252.722120
11
547.522800
21
252.722120
0
LINE
8
Layer 1
10
547.522800
20
252.722120
11
547.522800
21
247.721908
0
LINE
8
Layer 1
10
547.522800
20
247.721908
11
540.023000
21
247.721908
0
LINE
8
Layer 1
10
540.023000
20
247.721908
11
540.023000
21
244.669381
0
LINE
8
Layer 1
10
540.023000
20
244.669381
11
540.023000
21
242.568734
0
LINE
8
Layer 1
10
540.023000
20
242.568734
11
540.176480
21
242.722213
0
LINE
8
Layer 1
10
540.176480
20
242.722213
11
542.869850
21
242.722213
0
LINE
8
Layer 1
10
542.869850
20
242.722213
11
543.022820
21
242.568734
0
LINE
8
Layer 1
10
543.022820
20
242.568734
11
543.022820
21
62.875310
0
LINE
8
Layer 1
10
543.022820
20
62.875310
11
542.869850
21
62.721830
0
LINE
8
Layer 1
10
542.869850
20
62.721830
11
540.176480
21
62.721830
0
LINE
8
Layer 1
10
540.176480
20
62.721830
11
540.023000
21
62.875310
0
LINE
8
Layer 1
10
540.023000
20
62.875310
11
540.023000
21
60.296140
0
LINE
8
Layer 1
10
540.023000
20
60.296140
11
540.023000
21
57.722140
0
LINE
8
Layer 1
10
540.023000
20
57.722140
11
547.522800
21
57.722140
0
LINE
8
Layer 1
10
547.522800
20
57.722140
11
547.522800
21
52.721920
0
LINE
8
Layer 1
10
547.522800
20
52.721920
11
540.023000
21
52.721920
0
LINE
8
Layer 1
10
540.023000
20
52.721920
11
540.023000
21
50.719980
0
LINE
8
Layer 1
10
540.023000
20
50.719980
11
540.023000
21
47.875190
0
LINE
8
Layer 1
10
540.023000
20
47.875190
11
540.176480
21
47.722230
0
LINE
8
Layer 1
10
540.176480
20
47.722230
11
554.869640
21
47.722230
0
LINE
8
Layer 1
10
554.869640
20
47.722230
11
555.023120
21
47.875190
0
LINE
8
Layer 1
10
555.023120
20
47.875190
11
555.023120
21
49.912280
0
LINE
8
Layer 1
10
555.023120
20
49.912280
11
555.213290
21
49.722110
0
LINE
8
Layer 1
10
555.213290
20
49.722110
11
557.832770
21
49.722110
0
LINE
8
Layer 1
10
557.832770
20
49.722110
11
558.022930
21
49.912280
0
LINE
8
Layer 1
10
558.022930
20
49.912280
11
558.022930
21
55.531570
0
LINE
8
Layer 1
10
558.022930
20
55.531570
11
557.832770
21
55.722260
0
LINE
8
Layer 1
10
557.832770
20
55.722260
11
555.213290
21
55.722260
0
LINE
8
Layer 1
10
555.213290
20
55.722260
11
555.023120
21
55.531570
0
LINE
8
Layer 1
10
555.023120
20
55.531570
11
555.023120
21
64.912390
0
LINE
8
Layer 1
10
555.023120
20
64.912390
11
555.213290
21
64.722220
0
LINE
8
Layer 1
10
555.213290
20
64.722220
11
557.832770
21
64.722220
0
LINE
8
Layer 1
10
557.832770
20
64.722220
11
558.022930
21
64.912390
0
LINE
8
Layer 1
10
558.022930
20
64.912390
11
558.022930
21
70.531690
0
LINE
8
Layer 1
10
558.022930
20
70.531690
11
557.832770
21
70.721860
0
LINE
8
Layer 1
10
557.832770
20
70.721860
11
555.213290
21
70.721860
0
LINE
8
Layer 1
10
555.213290
20
70.721860
11
555.023120
21
70.531690
0
LINE
8
Layer 1
10
555.023120
20
70.531690
11
555.023120
21
234.912350
0
LINE
8
Layer 1
10
555.023120
20
234.912350
11
555.213290
21
234.722180
0
LINE
8
Layer 1
10
555.213290
20
234.722180
11
557.832770
21
234.722180
0
LINE
8
Layer 1
10
557.832770
20
234.722180
11
558.022930
21
234.912350
0
LINE
8
Layer 1
10
558.022930
20
234.912350
11
558.022930
21
240.531649
0
LINE
8
Layer 1
10
558.022930
20
240.531649
11
557.832770
21
240.721819
0
LINE
8
Layer 1
10
557.832770
20
240.721819
11
555.213290
21
240.721819
0
LINE
8
Layer 1
10
555.213290
20
240.721819
11
555.023120
21
240.531649
0
LINE
8
Layer 1
10
555.023120
20
240.531649
11
555.023120
21
249.912472
0
LINE
8
Layer 1
10
555.023120
20
249.912472
11
555.213290
21
249.722303
0
LINE
8
Layer 1
10
555.213290
20
249.722303
11
557.832770
21
249.722303
0
LINE
8
Layer 1
10
557.832770
20
249.722303
11
558.022930
21
249.912472
0
LINE
8
Layer 1
10
558.022930
20
249.912472
11
558.022930
21
255.531767
0
LINE
8
Layer 1
10
558.022930
20
255.531767
11
557.832770
21
255.721937
0
LINE
8
Layer 1
10
557.832770
20
255.721937
11
555.213290
21
255.721937
0
LINE
8
Layer 1
10
555.213290
20
255.721937
11
555.023120
21
255.531767
0
LINE
8
Layer 1
10
555.023120
20
255.531767
11
555.023120
21
257.568852
0
LINE
8
Layer 1
10
555.023120
20
257.568852
11
554.869640
21
257.721815
0
LINE
8
Layer 1
10
554.869640
20
257.721815
11
540.176480
21
257.721815
0
LINE
8
Layer 1
10
570.153310
20
257.000000
11
569.999830
21
256.847037
0
LINE
8
Layer 1
10
569.999830
20
256.847037
11
569.999830
21
255.214579
0
LINE
8
Layer 1
10
569.999830
20
255.214579
11
569.999830
21
252.000305
0
LINE
8
Layer 1
10
569.999830
20
252.000305
11
577.500150
21
252.000305
0
LINE
8
Layer 1
10
577.500150
20
252.000305
11
577.500150
21
247.000093
0
LINE
8
Layer 1
10
577.500150
20
247.000093
11
569.999830
21
247.000093
0
LINE
8
Layer 1
10
569.999830
20
247.000093
11
569.999830
21
245.875097
0
LINE
8
Layer 1
10
569.999830
20
245.875097
11
569.999830
21
241.846919
0
LINE
8
Layer 1
10
569.999830
20
241.846919
11
570.153310
21
242.000398
0
LINE
8
Layer 1
10
570.153310
20
242.000398
11
572.846690
21
242.000398
0
LINE
8
Layer 1
10
572.846690
20
242.000398
11
572.999650
21
241.846919
0
LINE
8
Layer 1
10
572.999650
20
241.846919
11
572.999650
21
62.153490
0
LINE
8
Layer 1
10
572.999650
20
62.153490
11
572.846690
21
62.000010
0
LINE
8
Layer 1
10
572.846690
20
62.000010
11
570.153310
21
62.000010
0
LINE
8
Layer 1
10
570.153310
20
62.000010
11
569.999830
21
62.153490
0
LINE
8
Layer 1
10
569.999830
20
62.153490
11
569.999830
21
57.000320
0
LINE
8
Layer 1
10
569.999830
20
57.000320
11
577.500150
21
57.000320
0
LINE
8
Layer 1
10
577.500150
20
57.000320
11
577.500150
21
52.000110
0
LINE
8
Layer 1
10
577.500150
20
52.000110
11
569.999830
21
52.000110
0
LINE
8
Layer 1
10
569.999830
20
52.000110
11
569.999830
21
49.417320
0
LINE
8
Layer 1
10
569.999830
20
49.417320
11
569.999830
21
47.153370
0
LINE
8
Layer 1
10
569.999830
20
47.153370
11
570.153310
21
47.000410
0
LINE
8
Layer 1
10
570.153310
20
47.000410
11
584.846470
21
47.000410
0
LINE
8
Layer 1
10
584.846470
20
47.000410
11
584.999950
21
47.153370
0
LINE
8
Layer 1
10
584.999950
20
47.153370
11
584.999950
21
256.847037
0
LINE
8
Layer 1
10
584.999950
20
256.847037
11
584.846470
21
257.000000
0
LINE
8
Layer 1
10
584.846470
20
257.000000
11
570.153310
21
257.000000
0
LINE
8
Layer 1
10
21.754390
20
289.466159
11
21.744590
21
289.456359
0
LINE
8
Layer 1
10
21.744590
20
289.456359
11
21.610748
21
289.323034
0
LINE
8
Layer 1
10
21.610748
20
289.323034
11
21.600948
21
289.313234
0
LINE
8
Layer 1
10
21.600948
20
289.313234
11
21.600948
21
289.274474
0
LINE
8
Layer 1
10
21.600948
20
289.274474
11
21.600948
21
277.916511
0
LINE
8
Layer 1
10
21.600948
20
277.916511
11
21.600948
21
274.619555
0
LINE
8
Layer 1
10
21.600948
20
274.619555
11
21.754427
21
274.466592
0
LINE
8
Layer 1
10
21.754427
20
274.466592
11
51.619787
21
274.466592
0
LINE
8
Layer 1
10
51.619787
20
274.466592
11
51.601187
21
274.485192
0
LINE
8
Layer 1
10
51.601187
20
274.485192
11
51.601187
21
277.447802
0
LINE
8
Layer 1
10
51.601187
20
277.447802
11
51.619787
21
277.466402
0
LINE
8
Layer 1
10
51.619787
20
277.466402
11
231.582447
21
277.466402
0
LINE
8
Layer 1
10
231.582447
20
277.466402
11
231.601047
21
277.447802
0
LINE
8
Layer 1
10
231.601047
20
277.447802
11
231.601047
21
274.485192
0
LINE
8
Layer 1
10
231.601047
20
274.485192
11
231.582447
21
274.466592
0
LINE
8
Layer 1
10
231.582447
20
274.466592
11
261.619887
21
274.466592
0
LINE
8
Layer 1
10
261.619887
20
274.466592
11
261.601287
21
274.485192
0
LINE
8
Layer 1
10
261.601287
20
274.485192
11
261.601287
21
277.447802
0
LINE
8
Layer 1
10
261.601287
20
277.447802
11
261.619887
21
277.466402
0
LINE
8
Layer 1
10
261.619887
20
277.466402
11
441.582547
21
277.466402
0
LINE
8
Layer 1
10
441.582547
20
277.466402
11
441.601147
21
277.447802
0
LINE
8
Layer 1
10
441.601147
20
277.447802
11
441.601147
21
274.485192
0
LINE
8
Layer 1
10
441.601147
20
274.485192
11
441.582547
21
274.466592
0
LINE
8
Layer 1
10
441.582547
20
274.466592
11
471.447907
21
274.466592
0
LINE
8
Layer 1
10
471.447907
20
274.466592
11
471.601387
21
274.619555
0
LINE
8
Layer 1
10
471.601387
20
274.619555
11
471.601387
21
289.313196
0
LINE
8
Layer 1
10
471.601387
20
289.313196
11
471.447907
21
289.466159
0
LINE
8
Layer 1
10
471.447907
20
289.466159
11
469.464057
21
289.466159
0
LINE
8
Layer 1
10
469.464057
20
289.466159
11
458.909657
21
289.466159
0
LINE
8
Layer 1
10
458.909657
20
289.466159
11
459.101377
21
289.274439
0
LINE
8
Layer 1
10
459.101377
20
289.274439
11
459.101377
21
282.158078
0
LINE
8
Layer 1
10
459.101377
20
282.158078
11
458.909657
21
281.966358
0
LINE
8
Layer 1
10
458.909657
20
281.966358
11
454.292887
21
281.966358
0
LINE
8
Layer 1
10
454.292887
20
281.966358
11
454.101167
21
282.158078
0
LINE
8
Layer 1
10
454.101167
20
282.158078
11
454.101167
21
289.274439
0
LINE
8
Layer 1
10
454.101167
20
289.274439
11
454.292887
21
289.466159
0
LINE
8
Layer 1
10
454.292887
20
289.466159
11
442.094630
21
289.466159
0
LINE
8
Layer 1
10
442.094630
20
289.466159
11
262.388280
21
289.466159
0
LINE
8
Layer 1
10
262.388280
20
289.466159
11
248.909520
21
289.466159
0
LINE
8
Layer 1
10
248.909520
20
289.466159
11
249.101240
21
289.274439
0
LINE
8
Layer 1
10
249.101240
20
289.274439
11
249.101240
21
282.158078
0
LINE
8
Layer 1
10
249.101240
20
282.158078
11
248.909520
21
281.966358
0
LINE
8
Layer 1
10
248.909520
20
281.966358
11
244.292750
21
281.966358
0
LINE
8
Layer 1
10
244.292750
20
281.966358
11
244.101030
21
282.158078
0
LINE
8
Layer 1
10
244.101030
20
282.158078
11
244.101030
21
289.274439
0
LINE
8
Layer 1
10
244.101030
20
289.274439
11
244.292750
21
289.466159
0
LINE
8
Layer 1
10
244.292750
20
289.466159
11
48.628202
21
289.466159
0
LINE
8
Layer 1
10
48.628202
20
289.466159
11
38.909415
21
289.466159
0
LINE
8
Layer 1
10
38.909415
20
289.466159
11
39.101135
21
289.274439
0
LINE
8
Layer 1
10
39.101135
20
289.274439
11
39.101135
21
282.158078
0
LINE
8
Layer 1
10
39.101135
20
282.158078
11
38.909415
21
281.966358
0
LINE
8
Layer 1
10
38.909415
20
281.966358
11
34.292643
21
281.966358
0
LINE
8
Layer 1
10
34.292643
20
281.966358
11
34.100923
21
282.158078
0
LINE
8
Layer 1
10
34.100923
20
282.158078
11
34.100923
21
289.274439
0
LINE
8
Layer 1
10
34.100923
20
289.274439
11
34.292643
21
289.466159
0
LINE
8
Layer 1
10
34.292643
20
289.466159
11
21.792630
21
289.466159
0
LINE
8
Layer 1
10
21.792630
20
289.466159
11
21.754390
21
289.466159
0
LINE
8
Layer 1
10
21.256127
20
311.290102
11
21.246327
21
311.280302
0
LINE
8
Layer 1
10
21.246327
20
311.280302
11
21.112485
21
311.146977
0
LINE
8
Layer 1
10
21.112485
20
311.146977
11
21.102685
21
311.137177
0
LINE
8
Layer 1
10
21.102685
20
311.137177
11
21.102685
21
311.098417
0
LINE
8
Layer 1
10
21.102685
20
311.098417
11
21.102685
21
299.740454
0
LINE
8
Layer 1
10
21.102685
20
299.740454
11
21.102685
21
296.443498
0
LINE
8
Layer 1
10
21.102685
20
296.443498
11
21.256164
21
296.290535
0
LINE
8
Layer 1
10
21.256164
20
296.290535
11
51.121524
21
296.290535
0
LINE
8
Layer 1
10
51.121524
20
296.290535
11
51.102924
21
296.309135
0
LINE
8
Layer 1
10
51.102924
20
296.309135
11
51.102924
21
299.271745
0
LINE
8
Layer 1
10
51.102924
20
299.271745
11
51.121524
21
299.290345
0
LINE
8
Layer 1
10
51.121524
20
299.290345
11
231.084180
21
299.290345
0
LINE
8
Layer 1
10
231.084180
20
299.290345
11
231.102780
21
299.271745
0
LINE
8
Layer 1
10
231.102780
20
299.271745
11
231.102780
21
296.309135
0
LINE
8
Layer 1
10
231.102780
20
296.309135
11
231.084180
21
296.290535
0
LINE
8
Layer 1
10
231.084180
20
296.290535
11
261.121620
21
296.290535
0
LINE
8
Layer 1
10
261.121620
20
296.290535
11
261.103020
21
296.309135
0
LINE
8
Layer 1
10
261.103020
20
296.309135
11
261.103020
21
299.271745
0
LINE
8
Layer 1
10
261.103020
20
299.271745
11
261.121620
21
299.290345
0
LINE
8
Layer 1
10
261.121620
20
299.290345
11
441.084280
21
299.290345
0
LINE
8
Layer 1
10
441.084280
20
299.290345
11
441.102880
21
299.271745
0
LINE
8
Layer 1
10
441.102880
20
299.271745
11
441.102880
21
296.309135
0
LINE
8
Layer 1
10
441.102880
20
296.309135
11
441.084280
21
296.290535
0
LINE
8
Layer 1
10
441.084280
20
296.290535
11
470.949640
21
296.290535
0
LINE
8
Layer 1
10
470.949640
20
296.290535
11
471.103120
21
296.443498
0
LINE
8
Layer 1
10
471.103120
20
296.443498
11
471.103120
21
311.137139
0
LINE
8
Layer 1
10
471.103120
20
311.137139
11
470.949640
21
311.290102
0
LINE
8
Layer 1
10
470.949640
20
311.290102
11
468.965790
21
311.290102
0
LINE
8
Layer 1
10
468.965790
20
311.290102
11
458.411390
21
311.290102
0
LINE
8
Layer 1
10
458.411390
20
311.290102
11
458.603110
21
311.098382
0
LINE
8
Layer 1
10
458.603110
20
311.098382
11
458.603110
21
303.982021
0
LINE
8
Layer 1
10
458.603110
20
303.982021
11
458.411390
21
303.790301
0
LINE
8
Layer 1
10
458.411390
20
303.790301
11
453.794620
21
303.790301
0
LINE
8
Layer 1
10
453.794620
20
303.790301
11
453.602900
21
303.982021
0
LINE
8
Layer 1
10
453.602900
20
303.982021
11
453.602900
21
311.098382
0
LINE
8
Layer 1
10
453.602900
20
311.098382
11
453.794620
21
311.290102
0
LINE
8
Layer 1
10
453.794620
20
311.290102
11
441.596360
21
311.290102
0
LINE
8
Layer 1
10
441.596360
20
311.290102
11
261.890010
21
311.290102
0
LINE
8
Layer 1
10
261.890010
20
311.290102
11
248.411250
21
311.290102
0
LINE
8
Layer 1
10
248.411250
20
311.290102
11
248.602970
21
311.098382
0
LINE
8
Layer 1
10
248.602970
20
311.098382
11
248.602970
21
303.982021
0
LINE
8
Layer 1
10
248.602970
20
303.982021
11
248.411250
21
303.790301
0
LINE
8
Layer 1
10
248.411250
20
303.790301
11
243.794480
21
303.790301
0
LINE
8
Layer 1
10
243.794480
20
303.790301
11
243.602760
21
303.982021
0
LINE
8
Layer 1
10
243.602760
20
303.982021
11
243.602760
21
311.098382
0
LINE
8
Layer 1
10
243.602760
20
311.098382
11
243.794480
21
311.290102
0
LINE
8
Layer 1
10
243.794480
20
311.290102
11
48.129939
21
311.290102
0
LINE
8
Layer 1
10
48.129939
20
311.290102
11
38.411152
21
311.290102
0
LINE
8
Layer 1
10
38.411152
20
311.290102
11
38.602872
21
311.098382
0
LINE
8
Layer 1
10
38.602872
20
311.098382
11
38.602872
21
303.982021
0
LINE
8
Layer 1
10
38.602872
20
303.982021
11
38.411152
21
303.790301
0
LINE
8
Layer 1
10
38.411152
20
303.790301
11
33.794380
21
303.790301
0
LINE
8
Layer 1
10
33.794380
20
303.790301
11
33.602660
21
303.982021
0
LINE
8
Layer 1
10
33.602660
20
303.982021
11
33.602660
21
311.098382
0
LINE
8
Layer 1
10
33.602660
20
311.098382
11
33.794380
21
311.290102
0
LINE
8
Layer 1
10
33.794380
20
311.290102
11
21.294367
21
311.290102
0
LINE
8
Layer 1
10
21.294367
20
311.290102
11
21.256127
21
311.290102
0
LINE
8
Layer 1
10
546.627100
20
324.605350
11
546.435900
21
324.414147
0
LINE
8
Layer 1
10
546.435900
20
324.414147
11
546.435900
21
299.797045
0
LINE
8
Layer 1
10
546.435900
20
299.797045
11
546.627100
21
299.605842
0
LINE
8
Layer 1
10
546.627100
20
299.605842
11
566.243990
21
299.605842
0
LINE
8
Layer 1
10
566.243990
20
299.605842
11
566.435710
21
299.797045
0
LINE
8
Layer 1
10
566.435710
20
299.797045
11
566.435710
21
324.414147
0
LINE
8
Layer 1
10
566.435710
20
324.414147
11
566.243990
21
324.605350
0
LINE
8
Layer 1
10
566.243990
20
324.605350
11
546.627100
21
324.605350
0
LINE
8
Layer 1
10
553.936210
20
322.605472
11
558.935910
21
322.605472
0
LINE
8
Layer 1
10
558.935910
20
322.605472
11
558.935910
21
316.605322
0
LINE
8
Layer 1
10
558.935910
20
316.605322
11
553.936210
21
316.605322
0
LINE
8
Layer 1
10
553.936210
20
316.605322
11
553.936210
21
322.605472
0
LINE
8
Layer 1
10
556.435800
20
315.105672
11
557.583872
21
314.877227
0
LINE
8
Layer 1
10
557.583872
20
314.877227
11
558.557122
21
314.226811
0
LINE
8
Layer 1
10
558.557122
20
314.226811
11
559.207372
21
313.253449
0
LINE
8
Layer 1
10
559.207372
20
313.253449
11
559.435620
21
312.105338
0
LINE
8
Layer 1
10
559.435620
20
312.105338
11
559.199831
21
310.937705
0
LINE
8
Layer 1
10
559.199831
20
310.937705
11
558.556939
21
309.984200
0
LINE
8
Layer 1
10
558.556939
20
309.984200
11
557.603433
21
309.341309
0
LINE
8
Layer 1
10
557.603433
20
309.341309
11
556.435800
21
309.105521
0
LINE
8
Layer 1
10
556.435800
20
309.105521
11
555.287691
21
309.333770
0
LINE
8
Layer 1
10
555.287691
20
309.333770
11
554.314331
21
309.984019
0
LINE
8
Layer 1
10
554.314331
20
309.984019
11
553.663915
21
310.957268
0
LINE
8
Layer 1
10
553.663915
20
310.957268
11
553.435470
21
312.105338
0
LINE
8
Layer 1
10
553.435470
20
312.105338
11
553.663767
21
313.253567
0
LINE
8
Layer 1
10
553.663767
20
313.253567
11
554.314148
21
314.226991
0
LINE
8
Layer 1
10
554.314148
20
314.226991
11
555.287571
21
314.877373
0
LINE
8
Layer 1
10
555.287571
20
314.877373
11
556.435800
21
315.105672
0
LINE
8
Layer 1
10
556.435800
20
315.105672
11
556.435800
21
315.105672
0
LINE
8
Layer 1
10
553.935700
20
307.605354
11
558.935910
21
307.605354
0
LINE
8
Layer 1
10
558.935910
20
307.605354
11
558.935910
21
301.605720
0
LINE
8
Layer 1
10
558.935910
20
301.605720
11
553.935700
21
301.605720
0
LINE
8
Layer 1
10
553.935700
20
301.605720
11
553.935700
21
307.605354
0
LINE
8
Layer 1
10
515.329070
20
294.885373
11
515.137870
21
294.694170
0
LINE
8
Layer 1
10
515.137870
20
294.694170
11
515.137870
21
270.077068
0
LINE
8
Layer 1
10
515.137870
20
270.077068
11
515.329070
21
269.885865
0
LINE
8
Layer 1
10
515.329070
20
269.885865
11
534.945960
21
269.885865
0
LINE
8
Layer 1
10
534.945960
20
269.885865
11
535.137680
21
270.077068
0
LINE
8
Layer 1
10
535.137680
20
270.077068
11
535.137680
21
294.694170
0
LINE
8
Layer 1
10
535.137680
20
294.694170
11
534.945960
21
294.885373
0
LINE
8
Layer 1
10
534.945960
20
294.885373
11
515.329070
21
294.885373
0
LINE
8
Layer 1
10
522.638180
20
292.885495
11
527.637880
21
292.885495
0
LINE
8
Layer 1
10
527.637880
20
292.885495
11
527.637880
21
286.885345
0
LINE
8
Layer 1
10
527.637880
20
286.885345
11
522.638180
21
286.885345
0
LINE
8
Layer 1
10
522.638180
20
286.885345
11
522.638180
21
292.885495
0
LINE
8
Layer 1
10
525.137770
20
285.385695
11
526.285842
21
285.157250
0
LINE
8
Layer 1
10
526.285842
20
285.157250
11
527.259092
21
284.506834
0
LINE
8
Layer 1
10
527.259092
20
284.506834
11
527.909342
21
283.533472
0
LINE
8
Layer 1
10
527.909342
20
283.533472
11
528.137590
21
282.385361
0
LINE
8
Layer 1
10
528.137590
20
282.385361
11
527.901801
21
281.217728
0
LINE
8
Layer 1
10
527.901801
20
281.217728
11
527.258909
21
280.264223
0
LINE
8
Layer 1
10
527.258909
20
280.264223
11
526.305403
21
279.621332
0
LINE
8
Layer 1
10
526.305403
20
279.621332
11
525.137770
21
279.385544
0
LINE
8
Layer 1
10
525.137770
20
279.385544
11
523.989661
21
279.613793
0
LINE
8
Layer 1
10
523.989661
20
279.613793
11
523.016301
21
280.264042
0
LINE
8
Layer 1
10
523.016301
20
280.264042
11
522.365885
21
281.237291
0
LINE
8
Layer 1
10
522.365885
20
281.237291
11
522.137440
21
282.385361
0
LINE
8
Layer 1
10
522.137440
20
282.385361
11
522.365737
21
283.533590
0
LINE
8
Layer 1
10
522.365737
20
283.533590
11
523.016118
21
284.507014
0
LINE
8
Layer 1
10
523.016118
20
284.507014
11
523.989541
21
285.157396
0
LINE
8
Layer 1
10
523.989541
20
285.157396
11
525.137770
21
285.385695
0
LINE
8
Layer 1
10
525.137770
20
285.385695
11
525.137770
21
285.385695
0
LINE
8
Layer 1
10
522.637670
20
277.885377
11
527.637880
21
277.885377
0
LINE
8
Layer 1
10
527.637880
20
277.885377
11
527.637880
21
271.885743
0
LINE
8
Layer 1
10
527.637880
20
271.885743
11
522.637670
21
271.885743
0
LINE
8
Layer 1
10
522.637670
20
271.885743
11
522.637670
21
277.885377
0
LINE
8
Layer 1
10
515.596830
20
326.072959
11
515.405630
21
325.881756
0
LINE
8
Layer 1
10
515.405630
20
325.881756
11
515.405630
21
301.264654
0
LINE
8
Layer 1
10
515.405630
20
301.264654
11
515.596830
21
301.073451
0
LINE
8
Layer 1
10
515.596830
20
301.073451
11
535.213720
21
301.073451
0
LINE
8
Layer 1
10
535.213720
20
301.073451
11
535.405440
21
301.264654
0
LINE
8
Layer 1
10
535.405440
20
301.264654
11
535.405440
21
325.881756
0
LINE
8
Layer 1
10
535.405440
20
325.881756
11
535.213720
21
326.072959
0
LINE
8
Layer 1
10
535.213720
20
326.072959
11
515.596830
21
326.072959
0
LINE
8
Layer 1
10
522.905940
20
324.073081
11
527.905640
21
324.073081
0
LINE
8
Layer 1
10
527.905640
20
324.073081
11
527.905640
21
318.072931
0
LINE
8
Layer 1
10
527.905640
20
318.072931
11
522.905940
21
318.072931
0
LINE
8
Layer 1
10
522.905940
20
318.072931
11
522.905940
21
324.073081
0
LINE
8
Layer 1
10
525.405530
20
316.573281
11
526.553602
21
316.344836
0
LINE
8
Layer 1
10
526.553602
20
316.344836
11
527.526852
21
315.694420
0
LINE
8
Layer 1
10
527.526852
20
315.694420
11
528.177102
21
314.721058
0
LINE
8
Layer 1
10
528.177102
20
314.721058
11
528.405350
21
313.572947
0
LINE
8
Layer 1
10
528.405350
20
313.572947
11
528.169561
21
312.405314
0
LINE
8
Layer 1
10
528.169561
20
312.405314
11
527.526669
21
311.451809
0
LINE
8
Layer 1
10
527.526669
20
311.451809
11
526.573163
21
310.808918
0
LINE
8
Layer 1
10
526.573163
20
310.808918
11
525.405530
21
310.573130
0
LINE
8
Layer 1
10
525.405530
20
310.573130
11
524.257421
21
310.801379
0
LINE
8
Layer 1
10
524.257421
20
310.801379
11
523.284061
21
311.451628
0
LINE
8
Layer 1
10
523.284061
20
311.451628
11
522.633645
21
312.424877
0
LINE
8
Layer 1
10
522.633645
20
312.424877
11
522.405200
21
313.572947
0
LINE
8
Layer 1
10
522.405200
20
313.572947
11
522.633497
21
314.721176
0
LINE
8
Layer 1
10
522.633497
20
314.721176
11
523.283878
21
315.694600
0
LINE
8
Layer 1
10
523.283878
20
315.694600
11
524.257301
21
316.344982
0
LINE
8
Layer 1
10
524.257301
20
316.344982
11
525.405530
21
316.573281
0
LINE
8
Layer 1
10
525.405530
20
316.573281
11
525.405530
21
316.573281
0
LINE
8
Layer 1
10
522.905430
20
309.072963
11
527.905640
21
309.072963
0
LINE
8
Layer 1
10
527.905640
20
309.072963
11
527.905640
21
303.073329
0
LINE
8
Layer 1
10
527.905640
20
303.073329
11
522.905430
21
303.073329
0
LINE
8
Layer 1
10
522.905430
20
303.073329
11
522.905430
21
309.072963
0
LINE
8
Layer 1
10
546.594630
20
294.886954
11
546.403430
21
294.695751
0
LINE
8
Layer 1
10
546.403430
20
294.695751
11
546.403430
21
270.078649
0
LINE
8
Layer 1
10
546.403430
20
270.078649
11
546.594630
21
269.887446
0
LINE
8
Layer 1
10
546.594630
20
269.887446
11
566.211520
21
269.887446
0
LINE
8
Layer 1
10
566.211520
20
269.887446
11
566.403240
21
270.078649
0
LINE
8
Layer 1
10
566.403240
20
270.078649
11
566.403240
21
294.695751
0
LINE
8
Layer 1
10
566.403240
20
294.695751
11
566.211520
21
294.886954
0
LINE
8
Layer 1
10
566.211520
20
294.886954
11
546.594630
21
294.886954
0
LINE
8
Layer 1
10
553.903740
20
292.887076
11
558.903440
21
292.887076
0
LINE
8
Layer 1
10
558.903440
20
292.887076
11
558.903440
21
286.886926
0
LINE
8
Layer 1
10
558.903440
20
286.886926
11
553.903740
21
286.886926
0
LINE
8
Layer 1
10
553.903740
20
286.886926
11
553.903740
21
292.887076
0
LINE
8
Layer 1
10
556.403330
20
285.387276
11
557.551402
21
285.158831
0
LINE
8
Layer 1
10
557.551402
20
285.158831
11
558.524652
21
284.508415
0
LINE
8
Layer 1
10
558.524652
20
284.508415
11
559.174902
21
283.535053
0
LINE
8
Layer 1
10
559.174902
20
283.535053
11
559.403150
21
282.386942
0
LINE
8
Layer 1
10
559.403150
20
282.386942
11
559.167361
21
281.219309
0
LINE
8
Layer 1
10
559.167361
20
281.219309
11
558.524469
21
280.265804
0
LINE
8
Layer 1
10
558.524469
20
280.265804
11
557.570963
21
279.622913
0
LINE
8
Layer 1
10
557.570963
20
279.622913
11
556.403330
21
279.387125
0
LINE
8
Layer 1
10
556.403330
20
279.387125
11
555.255221
21
279.615374
0
LINE
8
Layer 1
10
555.255221
20
279.615374
11
554.281861
21
280.265623
0
LINE
8
Layer 1
10
554.281861
20
280.265623
11
553.631445
21
281.238872
0
LINE
8
Layer 1
10
553.631445
20
281.238872
11
553.403000
21
282.386942
0
LINE
8
Layer 1
10
553.403000
20
282.386942
11
553.631297
21
283.535171
0
LINE
8
Layer 1
10
553.631297
20
283.535171
11
554.281678
21
284.508595
0
LINE
8
Layer 1
10
554.281678
20
284.508595
11
555.255101
21
285.158977
0
LINE
8
Layer 1
10
555.255101
20
285.158977
11
556.403330
21
285.387276
0
LINE
8
Layer 1
10
556.403330
20
285.387276
11
556.403330
21
285.387276
0
LINE
8
Layer 1
10
553.903230
20
277.886958
11
558.903440
21
277.886958
0
LINE
8
Layer 1
10
558.903440
20
277.886958
11
558.903440
21
271.887324
0
LINE
8
Layer 1
10
558.903440
20
271.887324
11
553.903230
21
271.887324
0
LINE
8
Layer 1
10
553.903230
20
271.887324
11
553.903230
21
277.886958
 0 
ENDSEC
 0 
EOF